.
 
http://www.scenetime.com    -  Hottest private tracker on the net. !!!

Sign up will close shortly !!  Join now 

        Seed back for speed


...................................NFO:.................................................
                                                                             
 :::  :::  :::::  :::   :::   :::::    ::: :::     :::    :::::    
 :::  :::  ::::::::::  :::   :::::::    ::::: :::     :::   :::::::   
 :::  ::::::::::::::::::::::::::: ::: ::: :::     :::  :::::::::  
 :::  ::: :::::::::::: :::::: ::: ::: :::     :::  ::::::  
 :::  ::: ::: :::::::::: :::  ::: ::: :::  :::     :::  ::: :::  
 :::  ::: ::: :::::::::  :::  ::: ::: :::  :::  :  :::  ::: :::  
 :::  ::: ::: :::::::::: :::  ::: ::: :::  ::: ::: :::  ::: :::  
 :::  ::: ::: ::::::::::::  ::: ::: :::  ::: : : :::  ::: :::  
 :::..::: ::: :::::: ::::::  ::: ::: :::  ::::: :::::  ::: :::  
 ::::::::: :::::: ::::::  ::: ::::: ::::: :::::  ::: :::  
  ::::  ::: ::::::  ::::::  ::: :::  ::::   ::::  ::: :::  

                                                                              
                  NOTES                    
                                                                              
                  NOTES                    
                                                                              
                                                                              
                                                                              
 Encoded By .......:UnKnOwN                                                   
 Runtime ..........:2:00                                                      
 IMDb URL .........:http://www.imdb.com/title/tt1691153/                      
 Language .........:English                                                   
 File Size ........:913mb                                                     
 Release Date ......... 2011                                                  
 Source       ......... r2                                                    
 File Type    ......... Single AVI                                            
 PS3 Compatible ....... Go for It                                             
 Genre        ......... Thriller/Action                                       
                                                                              
                                                                              
 Video                                                                        
  ID                               : 0                                        
  Format                           : MPEG-4 Visual                            
  Format profile                   : Advanced Simple@L5                        
  Format settings, BVOP            : Yes                                       
  Format settings, QPel            : No                                        
  Format settings, GMC             : No warppoints                             
  Format settings, Matrix          : Custom                                    
  Codec ID                         : XVID                                      
  Codec ID/Hint                    : XviD                                      
  Duration                         : 2h 00mn                                   
  Bit rate                         : 998 Kbps                                  
  Width                            : 680pixels                                 
  Height                           : 348pixels                                 
  Display aspect ratio             : 1.9.5                                     
  Frame rate                       : 29.997fps                                 
  Color space                      : YUV                                       
  Chroma subsampling               : 4:2:0                                     
  Bit depth                        : 8 bits                                    
  Scan type                        : Progressive                               
  Bits/(Pixel*Frame)               : 0.234                                     
  Stream size                      : 892 MiB (86%)                             
  Writing library                  : XviD 1.2.1 (UTC 2008-12-04)              
                                                                              
                                                                              
 Audio                                                                         
 ID                               : 1                                          
 Format                           : AC3                                        
 Format/Info                      : Version 1                                  
 Mode extension                   : AC3                                        
 Codec ID                         : 2000                                       
 Duration                         : 2h 00mn                                    
 Bit rate mode                    : Constant                                   
 Bit rate                         : 224Kbps                                    
 Channel(s)                       : 2channels                                  
 Channel positions                : Front: L R                                 
 Sampling rate                    : 48.0 KHz                                   
 Bit depth                        : 16 bits                                    
 Stream size                      : 302 MiB                                    
 Alignment                        : Aligned on interleaves                     
 Interleave, duration             : 42 ms (1.00 video frame)                   
 Interleave, preload duration     : 512 ms                                    
                                                                              
                                                                              
                                                                              
                                                                               
                                                                              
                                                                              
                                                                              
                                 SYSPNOSIS                                    
 When the Nazis begin killing Jews in Holland, a group of youth fight to save 
                        the lives of the innocent.                            
                                                                              
                                                                              a   
                                                                              
                                                                              
                                                                              
                              RELEASE INFO                                    
                                                                              
                                                                              
                        AKA War of Resistance                                 
                                                                              
                                                                              
                                                                              
                                                                              
                                                                              
                                                                              
                                                                              

                 
              
                                                                              
                                 LOOKING FOR                                  
                                                                              
                          That monkey from ace ventura                        
                                                                              
                                                                              
                                                                              
                                                                              

               GREETZ & RESPECT               
  
                          NOBODY YET WILL LET YOU KNOW                        
                                                                              
                          MORE GOODIES COMING REAL SOON